<svg id="Layer_1" data-name="Layer 1" xmlns="http://www.w3.org/2000/svg" viewBox="0 0 470 77"><defs><style>.cls-1{fill:#231f20;}</style></defs><title>RRAuctionLogoBlackandWhite-Long</title><path class="cls-1" d="M125.49,71.5h-1.91l25.09-62h2.26l24.49,62h-1.91l-8.16-20.4H133.74Zm24.4-60.26h-.17L134.43,49.36h30.22Z"/><path class="cls-1" d="M224.39,9.5V48.4q0,12.51-5.82,18.5t-16.93,6q-11.12,0-16.93-6t-5.82-18.5V9.5h1.74V48.4q0,11.2,5.12,17t15.89,5.82q10.77,0,15.89-5.82t5.12-17V9.5Z"/><path class="cls-1" d="M285,57.56a27.28,27.28,0,0,1-5.6,8.12,24.68,24.68,0,0,1-8.12,5.3,27.89,27.89,0,0,1-10.59,1.91,26.69,26.69,0,0,1-11.33-2.39,26.31,26.31,0,0,1-8.86-6.6,30.7,30.7,0,0,1-5.78-10.07A38,38,0,0,1,232.64,41a43.4,43.4,0,0,1,1.61-11.5,32.57,32.57,0,0,1,5.08-10.64,27,27,0,0,1,9-7.81,27.68,27.68,0,0,1,13.46-3,26.39,26.39,0,0,1,10.77,2,25.11,25.11,0,0,1,7.69,5.12,22.16,22.16,0,0,1,4.65,6.56,17,17,0,0,1,1.65,6.34h-1.74a16.81,16.81,0,0,0-2-6.64,20.62,20.62,0,0,0-4.74-5.86A24.07,24.07,0,0,0,271,11.37a27.85,27.85,0,0,0-22.05,1.48,26.3,26.3,0,0,0-8.47,7.73,31.84,31.84,0,0,0-4.65,10.12A40.85,40.85,0,0,0,234.38,41a37.35,37.35,0,0,0,1.74,11.38A29.07,29.07,0,0,0,241.23,62a25.62,25.62,0,0,0,8.29,6.68,24,24,0,0,0,11.16,2.52,26,26,0,0,0,10-1.82,23.18,23.18,0,0,0,7.64-5,25.53,25.53,0,0,0,5.21-7.64,34.35,34.35,0,0,0,2.69-9.55h1.74A36.94,36.94,0,0,1,285,57.56Z"/><path class="cls-1" d="M285.26,9.5h46.28v1.74H309.23V71.5h-1.74V11.24H285.26Z"/><path class="cls-1" d="M340.57,9.5v62h-1.74V9.5Z"/><path class="cls-1" d="M354,28a31,31,0,0,1,5.47-10.33,26.13,26.13,0,0,1,8.95-7,30.29,30.29,0,0,1,24.57,0,26.12,26.12,0,0,1,8.95,7A31.09,31.09,0,0,1,407.39,28a41.28,41.28,0,0,1,1.87,12.5A41.29,41.29,0,0,1,407.39,53a31.09,31.09,0,0,1-5.47,10.33,25.64,25.64,0,0,1-8.95,7,30.73,30.73,0,0,1-24.57,0,25.65,25.65,0,0,1-8.95-7A31,31,0,0,1,354,53a41.32,41.32,0,0,1-1.86-12.51A41.31,41.31,0,0,1,354,28Zm1.83,24.83a29.18,29.18,0,0,0,5.29,9.73,24,24,0,0,0,8.38,6.38,28.42,28.42,0,0,0,22.4,0,24,24,0,0,0,8.38-6.38,29.27,29.27,0,0,0,5.3-9.73,39.94,39.94,0,0,0,0-24.66,29.29,29.29,0,0,0-5.3-9.72,24.07,24.07,0,0,0-8.38-6.38,28.43,28.43,0,0,0-22.4,0,24.07,24.07,0,0,0-8.38,6.38,29.2,29.2,0,0,0-5.29,9.72,39.92,39.92,0,0,0,0,24.66Z"/><path class="cls-1" d="M420.54,9.5l42.38,59.83h.17V9.5h1.74v62h-2.61L419.85,11.67h-.17V71.5h-1.74V9.5Z"/><path class="cls-1" d="M108.47,71.58H93L82.24,55.11a25.66,25.66,0,0,1-3.83.29h-4.6V71.58H60.41V6.48h18c18.19,0,29.1,8.71,29.1,24.6,0,10.15-4.5,16.56-12.54,20.2ZM78,43.72c10.91,0,15.7-3.45,15.7-12.64s-5-12.83-15.7-12.83H73.81V43.72Z"/><path class="cls-1" d="M54,71.58H38.53L27.81,55.11A25.64,25.64,0,0,1,24,55.4h-4.6V71.58H6V6.48H24c18.19,0,29.1,8.71,29.1,24.6,0,10.15-4.5,16.56-12.54,20.2ZM23.59,43.72c10.91,0,15.7-3.45,15.7-12.64s-5-12.83-15.7-12.83H19.38V43.72Z"/></svg>